<svg xmlns="http://www.w3.org/2000/svg" xmlns:xlink="http://www.w3.org/1999/xlink" width="500" zoomAndPan="magnify" viewBox="0 0 375 374.999991" height="500" preserveAspectRatio="xMidYMid meet" version="1.0"><defs><clipPath id="b69aa3f4d5"><path d="M 74.4375 37.5 L 212.828125 37.5 L 212.828125 175.886719 L 74.4375 175.886719 Z M 74.4375 37.5 " clip-rule="nonzero"/></clipPath><clipPath id="1061e9d20c"><path d="M 143.632812 37.5 C 105.417969 37.5 74.4375 68.480469 74.4375 106.695312 C 74.4375 144.910156 105.417969 175.886719 143.632812 175.886719 C 181.847656 175.886719 212.828125 144.910156 212.828125 106.695312 C 212.828125 68.480469 181.847656 37.5 143.632812 37.5 " clip-rule="nonzero"/></clipPath><clipPath id="9fce086899"><path d="M 221.144531 37.5 L 301 37.5 L 301 150.0625 L 221.144531 150.0625 Z M 221.144531 37.5 " clip-rule="nonzero"/></clipPath><clipPath id="9556733cec"><path d="M 247.632812 40.140625 C 251.691406 38.546875 256.332031 37.5 260.875 37.5 C 265.417969 37.5 269.789062 38.398438 273.820312 39.992188 C 273.902344 40.042969 273.988281 40.042969 274.074219 40.089844 C 289.203125 46.46875 300.347656 63.3125 300.5625 82.992188 L 300.5625 150.0625 L 221.144531 150.0625 L 221.144531 83.042969 C 221.359375 63.210938 232.332031 46.371094 247.632812 40.140625 " clip-rule="nonzero"/></clipPath><clipPath id="c28efea25a"><path d="M 221.144531 149.3125 L 301 149.3125 L 301 261.871094 L 221.144531 261.871094 Z M 221.144531 149.3125 " clip-rule="nonzero"/></clipPath><clipPath id="0769262e6f"><path d="M 247.632812 259.230469 C 251.703125 260.828125 256.332031 261.871094 260.875 261.871094 C 265.417969 261.871094 269.789062 260.976562 273.820312 259.382812 C 273.902344 259.332031 273.988281 259.332031 274.074219 259.28125 C 289.203125 252.902344 300.347656 236.0625 300.5625 216.378906 L 300.5625 149.3125 L 221.144531 149.3125 L 221.144531 216.328125 C 221.359375 236.160156 232.332031 253.003906 247.632812 259.230469 " clip-rule="nonzero"/></clipPath><clipPath id="fa10c64f10"><path d="M 74.441406 269.367188 L 158.265625 269.367188 L 158.265625 337.476562 L 74.441406 337.476562 Z M 74.441406 269.367188 " clip-rule="nonzero"/></clipPath><clipPath id="2b3f44f18f"><path d="M 76.40625 314.761719 C 75.21875 311.28125 74.441406 307.296875 74.441406 303.402344 C 74.441406 299.507812 75.109375 295.757812 76.296875 292.300781 C 76.332031 292.230469 76.332031 292.15625 76.371094 292.082031 C 81.117188 279.105469 93.660156 269.550781 108.320312 269.367188 L 158.265625 269.367188 L 158.265625 337.476562 L 108.355469 337.476562 C 93.585938 337.292969 81.042969 327.882812 76.40625 314.761719 " clip-rule="nonzero"/></clipPath><clipPath id="1fa40c6abd"><path d="M 216.738281 269.367188 L 300.5625 269.367188 L 300.5625 337.476562 L 216.738281 337.476562 Z M 216.738281 269.367188 " clip-rule="nonzero"/></clipPath><clipPath id="ca67db5eee"><path d="M 298.597656 314.761719 C 299.785156 311.269531 300.5625 307.296875 300.5625 303.402344 C 300.5625 299.507812 299.894531 295.757812 298.707031 292.300781 C 298.671875 292.230469 298.671875 292.15625 298.632812 292.082031 C 293.882812 279.105469 281.34375 269.550781 266.683594 269.367188 L 216.738281 269.367188 L 216.738281 337.476562 L 266.648438 337.476562 C 281.417969 337.292969 293.957031 327.882812 298.597656 314.761719 " clip-rule="nonzero"/></clipPath><clipPath id="652134b8c4"><path d="M 143.632812 269.390625 L 228 269.390625 L 228 337 L 143.632812 337 Z M 143.632812 269.390625 " clip-rule="nonzero"/></clipPath></defs><g clip-path="url(#b69aa3f4d5)"><g clip-path="url(#1061e9d20c)"><path fill="#ef0f36" d="M 74.4375 37.5 L 212.828125 37.5 L 212.828125 175.886719 L 74.4375 175.886719 Z M 74.4375 37.5 " fill-opacity="1" fill-rule="nonzero"/></g></g><g clip-path="url(#9fce086899)"><g clip-path="url(#9556733cec)"><path fill="#ef0f36" d="M 221.144531 37.5 L 300.289062 37.5 L 300.289062 150.0625 L 221.144531 150.0625 Z M 221.144531 37.5 " fill-opacity="1" fill-rule="nonzero"/></g></g><g clip-path="url(#c28efea25a)"><g clip-path="url(#0769262e6f)"><path fill="#ef0f36" d="M 221.144531 149.3125 L 300.289062 149.3125 L 300.289062 261.871094 L 221.144531 261.871094 Z M 221.144531 149.3125 " fill-opacity="1" fill-rule="nonzero"/></g></g><g clip-path="url(#fa10c64f10)"><g clip-path="url(#2b3f44f18f)"><path fill="#ef0f36" d="M 74.441406 337.476562 L 74.441406 269.367188 L 158.265625 269.367188 L 158.265625 337.476562 Z M 74.441406 337.476562 " fill-opacity="1" fill-rule="nonzero"/></g></g><g clip-path="url(#1fa40c6abd)"><g clip-path="url(#ca67db5eee)"><path fill="#ef0f36" d="M 216.738281 337.476562 L 216.738281 269.367188 L 300.5625 269.367188 L 300.5625 337.476562 Z M 216.738281 337.476562 " fill-opacity="1" fill-rule="nonzero"/></g></g><g clip-path="url(#652134b8c4)"><path fill="#ef0f36" d="M 143.632812 269.390625 L 227.964844 269.390625 L 227.964844 336.859375 L 143.632812 336.859375 Z M 143.632812 269.390625 " fill-opacity="1" fill-rule="nonzero"/></g></svg>